<svg width="19" height="26" viewBox="0 0 19 26" fill="none" xmlns="http://www.w3.org/2000/svg">
<path fill-rule="evenodd" clip-rule="evenodd" d="M3.58696 3.62291V16.7299C3.58696 17.7204 2.78399 18.5233 1.79348 18.5233C0.802969 18.5233 0 17.7204 0 16.7299V2.15602C0 0.965287 0.965275 0 2.15601 0H2.63967C11.412 0 18.5233 7.11136 18.5233 15.8837L18.5233 16.6738C18.5233 18.2922 16.5666 19.1029 15.422 17.9584C14.9756 17.512 14.8137 16.8888 14.9364 16.3142L14.9364 15.8837C14.9364 9.41113 9.93561 4.10658 3.58696 3.62291ZM17.9584 15.422C17.6687 15.1324 17.3046 14.9625 16.9276 14.9124C17.2936 14.9565 17.6552 15.1189 17.9584 15.422ZM7.97103 7.77175C8.96154 7.77175 9.76451 8.57472 9.76451 9.56523C9.76451 12.8008 9.81494 15.211 9.9726 17.0227C10.1332 18.8682 10.3925 19.8966 10.6917 20.4868C10.9257 20.9484 11.1738 21.1382 11.6162 21.2764C12.2066 21.4607 13.077 21.5218 14.5471 21.5218C15.5376 21.5218 16.3406 22.3247 16.3406 23.3153C16.3406 24.3058 15.5376 25.1087 14.5471 25.1087C13.1277 25.1087 11.7314 25.0701 10.547 24.7003C9.21462 24.2842 8.1799 23.4652 7.49222 22.1084C6.86972 20.8802 6.56859 19.2807 6.39914 17.3337C6.22676 15.3529 6.17755 12.8061 6.17755 9.56523C6.17755 8.57472 6.98052 7.77175 7.97103 7.77175Z" fill="white"/>
</svg>
